<?xml version="1.0" encoding="UTF-8"?>
<svg id="Layer_1" data-name="Layer 1" xmlns="http://www.w3.org/2000/svg" viewBox="0 0 1022.08 70.92">
  <defs>
    <style>
      .cls-1 {
        stroke: #000;
        stroke-miterlimit: 10;
      }
    </style>
  </defs>
  <path class="cls-1" d="M36.74,4.8l-2.03,28.72c-.38,6.19-.83,14.61-1.36,25.28H4.08L.53,4.8H36.74Z"/>
  <path class="cls-1" d="M104.72,4.8l-1.51,22.11c-1.36-.14-3.53-.32-6.52-.53-1.84-.07-4.83-.14-8.97-.21-.21,1.38-.57,4.72-1.1,10.02-.38,5.13-1.01,12.67-1.88,22.61h-25.25c-.28-4.73-.8-12.18-1.56-22.32-.35-3.52-.71-6.95-1.1-10.3l-8.24,.21-7.46,.53-1.3-22.11H104.72Z"/>
  <path class="cls-1" d="M129.7,4.24c-.56,1.55-2.52,5.98-5.9,13.29-2.37,4.92-4.4,8.91-6.1,11.95l-10.12-4.01c.8-1.57,2.43-5.46,4.9-11.67,1.74-4.85,3.1-9.25,4.07-13.18l13.15,3.62Z"/>
  <path class="cls-1" d="M185.47,26.92c-2.57-.4-4.52-.6-5.84-.6-1.64,0-3.13,.38-4.49,1.12-1.64,.91-2.45,2.1-2.45,3.55,0,1.12,1.5,3.29,4.49,6.5,2.99,3.21,4.49,6.16,4.49,8.86,0,3.91-2.21,7.12-6.63,9.63-4.21,2.41-9.41,3.62-15.6,3.62-5.7,0-9.91-.27-12.62-.81-.31-1.08-.85-2.84-1.62-5.27-.49-1.31-1.17-3.06-2.03-5.24,3.83,.63,6.4,.95,7.72,.95,5.18,0,7.77-1.32,7.77-3.97,0-1.92-1.04-3.64-3.13-5.17-3.41-2.02-6.82-4.04-10.22-6.08-6.61-3.94-9.91-8.61-9.91-14.03s3.13-9.93,9.39-12.83c5.46-2.53,12.73-3.8,21.81-3.8,5.15,0,10.92,.5,17.32,1.51l1.56,22.04Z"/>
  <path class="cls-1" d="M265.39,4.8l-2.14,22.11c-1.29-.14-4.02-.34-8.19-.6-2.5-.07-5.46-.12-8.87-.14l-.89,11.32c3.58,.05,9.11-.13,16.59-.53-.35,1.05-.89,2.79-1.62,5.2-.38,1.43-.8,3.15-1.25,5.17-.97-.14-3.22-.35-6.73-.63-2.61-.14-5.18-.19-7.72-.14l-.42,12.23h-29.27l-1.62-27.56c-.28-6.33-1.06-15.14-2.35-26.44h54.46Z"/>
  <path class="cls-1" d="M339.32,25.02c0,4.31-1.79,8.13-5.37,11.46-3.17,2.91-7.13,4.99-11.89,6.26,1.01,1.05,3.5,3.27,7.46,6.64,1.98,1.55,5.01,3.59,9.08,6.12-1.63,.4-5.23,1.41-10.8,3.02-3.9,1.2-7.56,2.37-11.01,3.52-1.01-.84-3.25-3.02-6.73-6.54-1.6-1.78-3.95-4.78-7.04-9h-.1l-.52,12.3h-29.37c-.38-5.11-.92-13.54-1.62-25.28-.31-6.91-1.03-16.49-2.14-28.72,9.56-.68,18.29-1.02,26.19-1.02,29.25,0,43.87,7.08,43.87,21.23Zm-23.68,7.59c0-2.23-1.39-3.82-4.17-4.78-2.05-.7-4.63-1.01-7.72-.91l-.31,12.02c2.89,0,5.46-.43,7.72-1.3,2.99-1.12,4.49-2.8,4.49-5.03Z"/>
  <path class="cls-1" d="M378.55,4.8l-2.03,28.72c-.38,6.19-.83,14.61-1.36,25.28h-29.27l-3.55-54h36.21Z"/>
  <path class="cls-1" d="M454.09,32.22c0,8.46-3.9,15.12-11.69,19.97-8.03,5.04-19.35,7.56-33.96,7.56-9.39,0-16.64-.32-21.75-.95l-1.41-26.12c-.45-6.7-1.27-15.95-2.45-27.74,7.55-.73,15.42-1.09,23.63-1.09,14.64,0,26.1,2.3,34.38,6.89,8.83,4.92,13.25,12.08,13.25,21.48Zm-21.39,4.32c0-3.45-1.65-5.99-4.96-7.63-2.75-1.36-6.26-1.98-10.54-1.86l-.73,22.04c4.45-.19,8.09-1.16,10.9-2.92,3.55-2.18,5.32-5.39,5.32-9.63Z"/>
  <path class="cls-1" d="M521.85,58.8h-28.54l-1.93-4.68c-.8,.21-2.8,.93-6,2.14-2.05,.89-4.33,2.07-6.83,3.55l-2.97-4.25c-.59-.84-1.44-2.03-2.56-3.55l-2.82,6.79h-15.13c2.23-5.79,5.67-15.34,10.33-28.65,2.85-8.91,5.23-17.35,7.15-25.35h31.35c.97,3.68,3.63,12.25,7.98,25.7,2.4,7.03,5.72,16.47,9.96,28.3Zm-32.92-11.53c-.59-1.24-1.63-3.26-3.13-6.05-.9-1.55-2.28-3.68-4.12-6.4-.8,1.36-2.05,3.59-3.76,6.68-.94,1.78-2.05,4.21-3.34,7.28,1.04,0,3.41-.14,7.1-.42,2.23-.21,4.64-.57,7.25-1.09Z"/>
  <path class="cls-1" d="M595.99,4.8l-9.81,12.23c-2.64,3.35-6.21,8.04-10.69,14.06-.42,3.28-.96,7.93-1.62,13.96-.21,3.21-.56,7.79-1.04,13.75h-26.71c-.14-2.91-.45-7.56-.94-13.96-.28-2.41-.92-7-1.93-13.75-1.81-2.51-4.83-6.57-9.08-12.2-2.75-3.42-6.75-8.12-12-14.1h38.5c.63,1.52,1.72,3.93,3.29,7.21l5.01,9.49c1.32-2.16,3.11-5.34,5.37-9.56,.76-1.66,1.75-4.04,2.97-7.14h18.68Z"/>
  <path class="cls-1" d="M620.09,56.41c-1.91,5.77-5.2,10.43-9.86,13.99-.59-.05-1.88-.22-3.86-.53-1.04-.16-2.5-.47-4.38-.91,1.63-4.52,2.42-8.05,2.35-10.58,0-2.02-.63-4.83-1.88-8.44,1.7-.33,4.73-.95,9.08-1.86,2.16-.52,5.01-1.36,8.56-2.53,.52,1.71,.78,3.56,.78,5.55,0,1.88-.26,3.64-.78,5.31Z"/>
  <path class="cls-1" d="M721.97,4.8l-9.81,12.23c-2.64,3.35-6.21,8.04-10.69,14.06-.42,3.28-.96,7.93-1.62,13.96-.21,3.21-.56,7.79-1.04,13.75h-26.71c-.14-2.91-.45-7.56-.94-13.96-.28-2.41-.92-7-1.93-13.75-1.81-2.51-4.83-6.57-9.08-12.2-2.75-3.42-6.75-8.12-12-14.1h38.5c.63,1.52,1.72,3.93,3.29,7.21l5.01,9.49c1.32-2.16,3.11-5.34,5.37-9.56,.76-1.66,1.76-4.04,2.97-7.14h18.68Z"/>
  <path class="cls-1" d="M761,4.8l-2.03,28.72c-.38,6.19-.83,14.61-1.36,25.28h-29.27l-3.55-54h36.21Z"/>
  <path class="cls-1" d="M832.88,26.11c0,6.66-3.16,11.98-9.47,15.98-6.31,4-14.69,5.99-25.12,5.99l-.63,10.72h-28.74l-1.51-26.19c-.45-6.75-1.17-16.02-2.14-27.81,5.43-.73,13.37-1.09,23.84-1.09,12.76,0,22.99,1.72,30.68,5.17,8.73,3.91,13.09,9.66,13.09,17.23Zm-21.65,5.91c0-3.66-3.22-5.48-9.65-5.48-.77,0-1.55,.04-2.35,.11l-.52,12.3c8.35-.19,12.52-2.5,12.52-6.93Z"/>
  <path class="cls-1" d="M903.94,26.11c0,6.66-3.16,11.98-9.47,15.98-6.31,4-14.69,5.99-25.12,5.99l-.63,10.72h-28.74l-1.51-26.19c-.45-6.75-1.17-16.02-2.14-27.81,5.43-.73,13.37-1.09,23.84-1.09,12.76,0,22.99,1.72,30.68,5.17,8.73,3.91,13.09,9.66,13.09,17.23Zm-21.65,5.91c0-3.66-3.22-5.48-9.65-5.48-.77,0-1.55,.04-2.35,.11l-.52,12.3c8.35-.19,12.52-2.5,12.52-6.93Z"/>
  <path class="cls-1" d="M962.21,4.8l-2.24,22.25c-1.29-.14-4.07-.39-8.35-.74-2.92-.19-6.12-.3-9.6-.35l-.78,6.71c3.83,.07,10.07,.01,18.73-.18-.38,.87-.99,2.48-1.83,4.85-.49,1.43-.92,3.08-1.3,4.96-1.01-.16-3.53-.37-7.56-.63-1.88-.07-4.66-.09-8.35-.07l-.52,7.84c2.61-.02,7.41-.18,14.4-.46,1.32-.07,3.5-.35,6.52-.84-.28,.73-.92,2.47-1.93,5.24-.49,1.43-1.08,3.23-1.77,5.41h-46.69l-1.51-27.56c-.28-6.3-.96-15.12-2.04-26.44h54.83Z"/>
  <path class="cls-1" d="M1021.52,4.8l-2.24,22.25c-1.29-.14-4.07-.39-8.35-.74-2.92-.19-6.12-.3-9.6-.35l-.78,6.71c3.83,.07,10.07,.01,18.73-.18-.38,.87-.99,2.48-1.83,4.85-.49,1.43-.92,3.08-1.3,4.96-1.01-.16-3.53-.37-7.56-.63-1.88-.07-4.66-.09-8.35-.07l-.52,7.84c2.61-.02,7.41-.18,14.4-.46,1.32-.07,3.5-.35,6.52-.84-.28,.73-.92,2.47-1.93,5.24-.49,1.43-1.08,3.23-1.77,5.41h-46.69l-1.51-27.56c-.28-6.3-.96-15.12-2.04-26.44h54.83Z"/>
</svg>